<svg width="29" height="30" viewBox="0 0 29 30" fill="none" xmlns="http://www.w3.org/2000/svg">
<path d="M16.7975 14.8478L28.7531 0.596644C28.9535 0.359808 28.785 0 28.4753 0H24.8408C24.6267 0 24.4217 0.095645 24.2806 0.259608L14.42 12.0148L4.55945 0.259608C4.42281 0.095645 4.21786 0 3.99924 0H0.364727C0.0550194 0 -0.113498 0.359808 0.0869009 0.596644L12.0425 14.8478L0.0869009 29.0989C0.0420096 29.1517 0.0132101 29.2162 0.00392055 29.2849C-0.00536902 29.3536 0.00524149 29.4235 0.0344935 29.4863C0.0637455 29.5491 0.11041 29.6022 0.168946 29.6393C0.227483 29.6764 0.295432 29.6959 0.364727 29.6955H3.99924C4.2133 29.6955 4.41826 29.5999 4.55945 29.4359L14.42 17.6807L24.2806 29.4359C24.4172 29.5999 24.6221 29.6955 24.8408 29.6955H28.4753C28.785 29.6955 28.9535 29.3357 28.7531 29.0989L16.7975 14.8478Z" fill="#623CEA"/>
</svg>
