<svg width="31" height="31" viewBox="0 0 31 31" fill="none" xmlns="http://www.w3.org/2000/svg">
<path d="M12.5938 13.5625V21.3125C12.5938 21.5694 12.6958 21.8158 12.8775 21.9975C13.0592 22.1792 13.3056 22.2812 13.5625 22.2812C13.8194 22.2812 14.0658 22.1792 14.2475 21.9975C14.4292 21.8158 14.5312 21.5694 14.5312 21.3125V13.5625C14.5312 13.3056 14.4292 13.0592 14.2475 12.8775C14.0658 12.6958 13.8194 12.5938 13.5625 12.5938C13.3056 12.5938 13.0592 12.6958 12.8775 12.8775C12.6958 13.0592 12.5938 13.3056 12.5938 13.5625ZM17.4375 12.5938C17.6944 12.5938 17.9408 12.6958 18.1225 12.8775C18.3042 13.0592 18.4062 13.3056 18.4062 13.5625V21.3125C18.4062 21.5694 18.3042 21.8158 18.1225 21.9975C17.9408 22.1792 17.6944 22.2812 17.4375 22.2812C17.1806 22.2812 16.9342 22.1792 16.7525 21.9975C16.5708 21.8158 16.4688 21.5694 16.4688 21.3125V13.5625C16.4688 13.3056 16.5708 13.0592 16.7525 12.8775C16.9342 12.6958 17.1806 12.5938 17.4375 12.5938ZM19.375 7.75H25.1875C25.4444 7.75 25.6908 7.85206 25.8725 8.03374C26.0542 8.21542 26.1562 8.46182 26.1562 8.71875C26.1562 8.97568 26.0542 9.22208 25.8725 9.40376C25.6908 9.58544 25.4444 9.6875 25.1875 9.6875H24.1161L22.6591 22.816C22.5274 24.0009 21.9635 25.0956 21.0752 25.8906C20.1868 26.6856 19.0365 27.1251 17.8444 27.125H13.1556C11.9635 27.1251 10.8132 26.6856 9.92482 25.8906C9.03649 25.0956 8.47255 24.0009 8.34094 22.816L6.882 9.6875H5.8125C5.55557 9.6875 5.30917 9.58544 5.12749 9.40376C4.94581 9.22208 4.84375 8.97568 4.84375 8.71875C4.84375 8.46182 4.94581 8.21542 5.12749 8.03374C5.30917 7.85206 5.55557 7.75 5.8125 7.75H11.625C11.625 6.72229 12.0333 5.73666 12.76 5.00996C13.4867 4.28326 14.4723 3.875 15.5 3.875C16.5277 3.875 17.5133 4.28326 18.24 5.00996C18.9667 5.73666 19.375 6.72229 19.375 7.75V7.75ZM15.5 5.8125C14.9861 5.8125 14.4933 6.01663 14.13 6.37998C13.7666 6.74333 13.5625 7.23614 13.5625 7.75H17.4375C17.4375 7.23614 17.2334 6.74333 16.87 6.37998C16.5067 6.01663 16.0139 5.8125 15.5 5.8125V5.8125ZM8.83306 9.6875L10.2668 22.6029C10.346 23.3137 10.6844 23.9703 11.2174 24.4471C11.7504 24.924 12.4405 25.1876 13.1556 25.1875H17.8444C18.5592 25.1871 19.2488 24.9233 19.7814 24.4465C20.314 23.9697 20.6521 23.3133 20.7312 22.6029L22.1689 9.6875H8.835H8.83306Z" fill="#234D29"/>
</svg>
