<svg width="22" height="20" viewBox="0 0 22 20" fill="none" xmlns="http://www.w3.org/2000/svg">
<g clip-path="url(#clip0_704_85)">
<path d="M15.3656 13.1761L16.5878 11.9539C16.7788 11.7629 17.1111 11.8966 17.1111 12.1716V17.7251C17.1111 18.7372 16.2899 19.5584 15.2778 19.5584H1.83333C0.82118 19.5584 0 18.7372 0 17.7251V4.28064C0 3.26849 0.82118 2.44731 1.83333 2.44731H12.2795C12.5507 2.44731 12.6882 2.77578 12.4972 2.97057L11.275 4.19279C11.2177 4.25009 11.1413 4.28064 11.0573 4.28064H1.83333V17.7251H15.2778V13.39C15.2778 13.3098 15.3083 13.2334 15.3656 13.1761ZM21.3469 5.46849L11.317 15.4983L7.86424 15.8803C6.86354 15.9911 6.01181 15.147 6.12257 14.1386L6.50451 10.6858L16.5344 0.655989C17.409 -0.218663 18.8222 -0.218663 19.6931 0.655989L21.3431 2.30599C22.2177 3.18064 22.2177 4.59766 21.3469 5.46849V5.46849ZM17.5733 6.6487L15.3542 4.4296L8.25764 11.5299L7.97882 14.024L10.4729 13.7452L17.5733 6.6487ZM20.0483 3.6046L18.3983 1.9546C18.2417 1.798 17.9858 1.798 17.833 1.9546L16.6528 3.13481L18.8719 5.35391L20.0521 4.1737C20.2049 4.01328 20.2049 3.7612 20.0483 3.6046V3.6046Z" fill="#234D29"/>
</g>
<defs>
<clipPath id="clip0_704_85">
<rect width="22" height="19.5556" fill="white"/>
</clipPath>
</defs>
</svg>
