  <svg width="28" height="29" viewBox="0 0 28 29" fill="none" xmlns="http://www.w3.org/2000/svg">
<path fill-rule="evenodd" clip-rule="evenodd" d="M2 0.0625H24L26 2.125V13.0563C25.3705 12.7388 24.6949 12.5298 24 12.4375V2.125H14V24.565L11.76 26.875H2L0 24.8125V2.125L2 0.0625ZM2 24.8125H12V2.125H2V24.8125ZM22.758 14.5041C21.9192 14.5361 21.1013 14.7828 20.378 15.2219H20.318C19.7393 15.5821 19.237 16.0591 18.8414 16.6243C18.4458 17.1896 18.1649 17.8314 18.0157 18.5113C17.8665 19.1912 17.8519 19.8952 17.973 20.581C18.094 21.2668 18.3481 21.9204 18.72 22.5025L14 27.3494L15.42 28.8138L20.12 23.9463C20.77 24.4 21.52 24.6846 22.3 24.7713C23.0699 24.8677 23.8509 24.7758 24.58 24.5031C25.3375 24.2404 26.0231 23.7949 26.58 23.2038C27.12 22.621 27.5177 21.914 27.74 21.1413C27.9561 20.371 28.0039 19.561 27.88 18.7694C27.741 17.974 27.4248 17.2228 26.9563 16.575C26.4877 15.9271 25.8796 15.4004 25.18 15.0363C24.4279 14.6547 23.5956 14.4719 22.758 14.5041ZM23.238 22.7376C22.5486 22.8081 21.8567 22.6302 21.28 22.2344C20.783 21.8884 20.3939 21.4012 20.16 20.8319C19.938 20.2699 19.8823 19.6527 20 19.0581C20.1129 18.4559 20.398 17.9023 20.8186 17.4686C21.2392 17.0348 21.776 16.7408 22.36 16.6244C22.9366 16.503 23.535 16.5605 24.08 16.7894C24.632 17.0307 25.104 17.4308 25.44 17.9444C25.7269 18.3887 25.8974 18.902 25.935 19.4344C25.9726 19.9668 25.876 20.5002 25.6545 20.9826C25.4331 21.4651 25.0943 21.8803 24.6712 22.1878C24.2481 22.4954 23.7551 22.6848 23.24 22.7376H23.238Z" fill="#623CEA"/>
</svg>
