<svg width="23" height="25" viewBox="0 0 23 25" fill="none" xmlns="http://www.w3.org/2000/svg">
<g clip-path="url(#clip0_23_210)">
<path d="M21.7306 24.4762C22.4316 24.4762 23 23.8808 23 23.1463V1.71071C23 0.976181 22.4316 0.380859 21.7306 0.380859H1.2694C0.568172 0.380859 0 0.976181 0 1.71071V23.1463C0 23.8808 0.568172 24.4762 1.2694 24.4762H21.7306Z" fill="#395185"/>
<path d="M15.8695 24.4761V15.1451H18.8593L19.3069 11.5087H15.8695V9.18694C15.8695 8.13409 16.1487 7.4166 17.5899 7.4166L19.428 7.41575V4.16337C19.1099 4.11904 18.0189 4.02002 16.7496 4.02002C14.0994 4.02002 12.2851 5.71469 12.2851 8.82692V11.5087H9.28769V15.1451H12.2851V24.4761H15.8695Z" fill="white"/>
</g>
<defs>
<clipPath id="clip0_23_210">
<rect width="23" height="24.0952" fill="white" transform="translate(0 0.380859)"/>
</clipPath>
</defs>
</svg>
