<svg width="60" height="60" viewBox="0 0 60 60" fill="none" xmlns="http://www.w3.org/2000/svg">
<path d="M22.5 39.375C22.5 38.8777 22.6975 38.4008 23.0492 38.0492C23.4008 37.6975 23.8777 37.5 24.375 37.5H35.625C36.1223 37.5 36.5992 37.6975 36.9508 38.0492C37.3025 38.4008 37.5 38.8777 37.5 39.375C37.5 39.8723 37.3025 40.3492 36.9508 40.7008C36.5992 41.0525 36.1223 41.25 35.625 41.25H24.375C23.8777 41.25 23.4008 41.0525 23.0492 40.7008C22.6975 40.3492 22.5 39.8723 22.5 39.375ZM15 28.125C15 27.6277 15.1975 27.1508 15.5492 26.7992C15.9008 26.4475 16.3777 26.25 16.875 26.25H43.125C43.6223 26.25 44.0992 26.4475 44.4508 26.7992C44.8025 27.1508 45 27.6277 45 28.125C45 28.6223 44.8025 29.0992 44.4508 29.4508C44.0992 29.8025 43.6223 30 43.125 30H16.875C16.3777 30 15.9008 29.8025 15.5492 29.4508C15.1975 29.0992 15 28.6223 15 28.125ZM7.5 16.875C7.5 16.3777 7.69754 15.9008 8.04918 15.5492C8.40081 15.1975 8.87772 15 9.375 15H50.625C51.1223 15 51.5992 15.1975 51.9508 15.5492C52.3025 15.9008 52.5 16.3777 52.5 16.875C52.5 17.3723 52.3025 17.8492 51.9508 18.2008C51.5992 18.5525 51.1223 18.75 50.625 18.75H9.375C8.87772 18.75 8.40081 18.5525 8.04918 18.2008C7.69754 17.8492 7.5 17.3723 7.5 16.875Z" fill="#234D29"/>
</svg>
