<svg width="23" height="25" viewBox="0 0 23 25" fill="none" xmlns="http://www.w3.org/2000/svg">
<path d="M8.3407 16.2358C8.3407 16.039 8.41306 15.8502 8.54186 15.711C8.67066 15.5718 8.84536 15.4937 9.02751 15.4937H13.1484C13.3305 15.4937 13.5052 15.5718 13.634 15.711C13.7628 15.8502 13.8352 16.039 13.8352 16.2358C13.8352 16.4327 13.7628 16.6215 13.634 16.7606C13.5052 16.8998 13.3305 16.978 13.1484 16.978H9.02751C8.84536 16.978 8.67066 16.8998 8.54186 16.7606C8.41306 16.6215 8.3407 16.4327 8.3407 16.2358ZM5.59344 11.7827C5.59344 11.5859 5.6658 11.3971 5.79461 11.2579C5.92341 11.1187 6.0981 11.0405 6.28026 11.0405H15.8956C16.0778 11.0405 16.2525 11.1187 16.3813 11.2579C16.5101 11.3971 16.5825 11.5859 16.5825 11.7827C16.5825 11.9796 16.5101 12.1683 16.3813 12.3075C16.2525 12.4467 16.0778 12.5249 15.8956 12.5249H6.28026C6.0981 12.5249 5.92341 12.4467 5.79461 12.3075C5.6658 12.1683 5.59344 11.9796 5.59344 11.7827ZM2.84619 7.32959C2.84619 7.13275 2.91855 6.94397 3.04735 6.80478C3.17616 6.6656 3.35085 6.5874 3.533 6.5874H18.6429C18.825 6.5874 18.9997 6.6656 19.1285 6.80478C19.2573 6.94397 19.3297 7.13275 19.3297 7.32959C19.3297 7.52643 19.2573 7.71521 19.1285 7.8544C18.9997 7.99358 18.825 8.07178 18.6429 8.07178H3.533C3.35085 8.07178 3.17616 7.99358 3.04735 7.8544C2.91855 7.71521 2.84619 7.52643 2.84619 7.32959Z" fill="white"/>
</svg>
