<svg width="24" height="22" viewBox="0 0 24 22" fill="none" xmlns="http://www.w3.org/2000/svg">
<path d="M21.8055 9.20463H21V9.16659H12V12.8333H17.6515C16.827 14.9677 14.6115 16.4999 12 16.4999C8.6865 16.4999 6 14.0373 6 10.9999C6 7.96254 8.6865 5.49992 12 5.49992C13.5295 5.49992 14.921 6.02884 15.9805 6.89279L18.809 4.3C17.023 2.77421 14.634 1.83325 12 1.83325C6.4775 1.83325 2 5.93763 2 10.9999C2 16.0622 6.4775 20.1666 12 20.1666C17.5225 20.1666 22 16.0622 22 10.9999C22 10.3853 21.931 9.78534 21.8055 9.20463Z" fill="#FFC107"/>
<path d="M3.153 6.73329L6.4385 8.942C7.3275 6.92442 9.4805 5.49992 12 5.49992C13.5295 5.49992 14.921 6.02883 15.9805 6.89279L18.809 4.3C17.023 2.77421 14.634 1.83325 12 1.83325C8.159 1.83325 4.828 3.82104 3.153 6.73329Z" fill="#FF3D00"/>
<path d="M12 20.1667C14.583 20.1667 16.93 19.2606 18.7045 17.7871L15.6095 15.3863C14.5718 16.1097 13.3037 16.501 12 16.5001C9.399 16.5001 7.1905 14.9798 6.3585 12.8582L3.0975 15.1613C4.7525 18.1299 8.1135 20.1667 12 20.1667Z" fill="#4CAF50"/>
<path d="M21.8055 9.20479H21V9.16675H12V12.8334H17.6515C17.2571 13.8493 16.5467 14.737 15.608 15.3868L15.6095 15.3859L18.7045 17.7866C18.4855 17.969 22 15.5834 22 11.0001C22 10.3855 21.931 9.7855 21.8055 9.20479Z" fill="#1976D2"/>
</svg>
