<svg width="35" height="35" viewBox="0 0 35 35" fill="none" xmlns="http://www.w3.org/2000/svg">
<g clip-path="url(#clip0_98_147)">
<path d="M15.5022 20.5624C16.0575 19.3424 16.8476 18.2436 17.8275 17.329C18.8075 16.4143 19.958 15.7017 21.2134 15.2318C22.4687 14.7619 23.8044 14.5439 25.1441 14.5902C26.4837 14.6366 27.8011 14.9464 29.021 15.502C30.2411 16.0572 31.3398 16.8474 32.2544 17.8273C33.1691 18.8072 33.8817 19.9577 34.3516 21.2131C34.8216 22.4685 35.0396 23.8042 34.9932 25.1438C34.9468 26.4835 34.637 27.8009 34.0814 29.0208C33.2728 30.8058 31.9662 32.3196 30.3183 33.3802C28.6705 34.4408 26.7515 35.0032 24.7918 34.9999C20.8543 34.9999 17.2522 32.7249 15.5606 29.1666H1.4585V26.2499C1.546 24.5874 2.6835 23.2312 4.871 22.1374C7.0585 21.0437 9.80016 20.4749 13.1252 20.4166C13.9564 20.4166 14.7439 20.4895 15.5022 20.5624ZM13.1252 5.83325C14.7585 5.877 16.1293 6.44575 17.2231 7.5395C18.3168 8.63325 18.8564 10.0041 18.8564 11.6666C18.8564 13.3291 18.3168 14.6999 17.2231 15.7937C16.1293 16.8874 14.7585 17.427 13.1252 17.427C11.4918 17.427 10.121 16.8874 9.02725 15.7937C7.9335 14.6999 7.39391 13.3291 7.39391 11.6666C7.39391 10.0041 7.9335 8.63325 9.02725 7.5395C10.121 6.44575 11.4918 5.877 13.1252 5.83325ZM24.7918 32.0833C26.7257 32.0833 28.5804 31.315 29.9478 29.9476C31.3153 28.5801 32.0835 26.7255 32.0835 24.7916C32.0835 22.8577 31.3153 21.0031 29.9478 19.6356C28.5804 18.2681 26.7257 17.4999 24.7918 17.4999C22.858 17.4999 21.0033 18.2681 19.6358 19.6356C18.2684 21.0031 17.5002 22.8577 17.5002 24.7916C17.5002 26.7255 18.2684 28.5801 19.6358 29.9476C21.0033 31.315 22.858 32.0833 24.7918 32.0833ZM23.3335 20.4166H25.521V24.5291L29.0793 26.5853L27.9856 28.4812L23.3335 25.7978V20.4166Z" fill="#623CEA"/>
</g>
<defs>
<clipPath id="clip0_98_147">
<rect width="35" height="35" fill="white"/>
</clipPath>
</defs>
</svg>
