<svg width="35" height="35" viewBox="0 0 35 35" fill="none" xmlns="http://www.w3.org/2000/svg">
<g clip-path="url(#clip0_99_176)">
<path d="M27.4165 28.5833V32.0833H2.9165V28.5833C2.9165 28.5833 2.9165 21.5833 15.1665 21.5833C27.4165 21.5833 27.4165 28.5833 27.4165 28.5833ZM21.2915 11.9583C21.2915 10.7469 20.9323 9.56273 20.2593 8.55548C19.5862 7.54823 18.6296 6.76317 17.5104 6.29958C16.3912 5.836 15.1597 5.7147 13.9716 5.95103C12.7834 6.18737 11.6921 6.77072 10.8355 7.62732C9.97888 8.48391 9.39553 9.57528 9.15919 10.7634C8.92286 11.9515 9.04416 13.1831 9.50774 14.3023C9.97133 15.4215 10.7564 16.3781 11.7636 17.0511C12.7709 17.7241 13.9551 18.0833 15.1665 18.0833C16.791 18.0833 18.3489 17.438 19.4975 16.2894C20.6462 15.1407 21.2915 13.5828 21.2915 11.9583ZM27.3115 21.5833C28.3873 22.4159 29.2676 23.4741 29.8904 24.6835C30.5133 25.8929 30.8635 27.224 30.9165 28.5833V32.0833H37.9165V28.5833C37.9165 28.5833 37.9165 22.2308 27.3115 21.5833ZM25.6665 5.83334C24.462 5.82664 23.2839 6.18677 22.289 6.86584C23.352 8.35113 23.9236 10.1318 23.9236 11.9583C23.9236 13.7848 23.352 15.5656 22.289 17.0508C23.2839 17.7299 24.462 18.09 25.6665 18.0833C27.291 18.0833 28.8489 17.438 29.9975 16.2894C31.1462 15.1407 31.7915 13.5828 31.7915 11.9583C31.7915 10.3339 31.1462 8.77598 29.9975 7.62732C28.8489 6.47865 27.291 5.83334 25.6665 5.83334Z" fill="#623CEA"/>
</g>
<defs>
<clipPath id="clip0_99_176">
<rect width="35" height="35" fill="white"/>
</clipPath>
</defs>
</svg>
