<svg width="45" height="48" viewBox="0 0 45 48" fill="none" xmlns="http://www.w3.org/2000/svg">
<path d="M17.9606 29.3384L2.19735 47.2903L0.701709 45.9479L16.5128 27.9074L16.8024 27.577L16.5119 27.2473C14.4682 24.9278 13.1343 22.0638 12.671 18.9998C12.2078 15.9357 12.635 12.8024 13.9011 9.97683C15.1673 7.15127 17.2183 4.75393 19.8071 3.07286C22.2558 1.48279 25.0872 0.597472 27.9943 0.507599V0.520316L28.4945 0.520103C31.0431 0.519015 33.5551 1.13009 35.8215 2.30255C38.0878 3.47502 40.0429 5.17502 41.5237 7.26114C43.0046 9.34728 43.9682 11.7591 44.3343 14.2957C44.7003 16.8324 44.458 19.4202 43.6277 21.8436C42.7975 24.267 41.4032 26.4556 39.5614 28.2273C37.7196 29.9989 35.4836 31.3024 33.0396 32.0292C30.5957 32.7561 28.0144 32.8854 25.5107 32.4064C23.007 31.9274 20.6532 30.854 18.6454 29.2753L18.2731 28.9826L17.9606 29.3384ZM18.5958 26.5295C21.2206 29.168 24.7811 30.6508 28.4943 30.6508C32.2075 30.6508 35.768 29.168 38.3928 26.5295C41.0175 23.891 42.4916 20.3131 42.4916 16.5829C42.4916 12.8527 41.0175 9.2748 38.3928 6.63637C35.768 3.99786 32.2075 2.51508 28.4943 2.51508C24.7811 2.51508 21.2206 3.99786 18.5958 6.63637C15.9711 9.2748 14.497 12.8527 14.497 16.5829C14.497 20.3131 15.9711 23.891 18.5958 26.5295Z" fill="#234D29" stroke="#234D29"/>
</svg>
