<svg width="43" height="42" viewBox="0 0 43 42" fill="none" xmlns="http://www.w3.org/2000/svg">
<path d="M13.6299 36.87L21.5619 28.938C21.8448 28.6648 22.2237 28.5136 22.617 28.517C23.0103 28.5204 23.3866 28.6782 23.6647 28.9563C23.9428 29.2344 24.1005 29.6106 24.1039 30.0039C24.1074 30.3972 23.9562 30.7761 23.6829 31.059L13.2789 41.46C13.1379 41.6284 12.9617 41.7638 12.7626 41.8565C12.5636 41.9493 12.3466 41.9973 12.1269 41.997H12.1239C11.9266 41.997 11.7312 41.958 11.549 41.8823C11.3668 41.8066 11.2012 41.6957 11.0619 41.556L11.0319 41.526L0.561936 31.056C0.418671 30.9176 0.304398 30.7521 0.225784 30.5691C0.147171 30.3861 0.105791 30.1893 0.104061 29.9901C0.10233 29.7909 0.140282 29.5934 0.215703 29.4091C0.291125 29.2247 0.402504 29.0572 0.543343 28.9164C0.684182 28.7756 0.851661 28.6642 1.03601 28.5888C1.22035 28.5133 1.41787 28.4754 1.61704 28.4771C1.81621 28.4789 2.01304 28.5202 2.19604 28.5988C2.37905 28.6775 2.54457 28.7917 2.68294 28.935L10.6269 36.882V1.5C10.6269 1.10218 10.785 0.720645 11.0663 0.43934C11.3476 0.158036 11.7291 0 12.1269 0C12.5248 0 12.9063 0.158036 13.1876 0.43934C13.4689 0.720645 13.6269 1.10218 13.6269 1.5V36.87H13.6299ZM20.4999 3C20.1021 3 19.7206 3.15804 19.4393 3.43934C19.158 3.72064 18.9999 4.10218 18.9999 4.5C18.9999 4.89782 19.158 5.27936 19.4393 5.56066C19.7206 5.84196 20.1021 6 20.4999 6H41.4999C41.8978 6 42.2793 5.84196 42.5606 5.56066C42.8419 5.27936 42.9999 4.89782 42.9999 4.5C42.9999 4.10218 42.8419 3.72064 42.5606 3.43934C42.2793 3.15804 41.8978 3 41.4999 3H20.4999ZM20.4999 12C20.1021 12 19.7206 12.158 19.4393 12.4393C19.158 12.7206 18.9999 13.1022 18.9999 13.5C18.9999 13.8978 19.158 14.2794 19.4393 14.5607C19.7206 14.842 20.1021 15 20.4999 15H35.4999C35.8978 15 36.2793 14.842 36.5606 14.5607C36.8419 14.2794 36.9999 13.8978 36.9999 13.5C36.9999 13.1022 36.8419 12.7206 36.5606 12.4393C36.2793 12.158 35.8978 12 35.4999 12H20.4999ZM20.4999 21C20.1021 21 19.7206 21.158 19.4393 21.4393C19.158 21.7206 18.9999 22.1022 18.9999 22.5C18.9999 22.8978 19.158 23.2794 19.4393 23.5607C19.7206 23.842 20.1021 24 20.4999 24H26.4999C26.8978 24 27.2793 23.842 27.5606 23.5607C27.8419 23.2794 27.9999 22.8978 27.9999 22.5C27.9999 22.1022 27.8419 21.7206 27.5606 21.4393C27.2793 21.158 26.8978 21 26.4999 21H20.4999Z" fill="#234D29"/>
</svg>
