<svg width="25" height="26" viewBox="0 0 25 26" fill="none" xmlns="http://www.w3.org/2000/svg">
<path d="M24.3259 11.7921C24.6062 11.5645 24.8142 11.247 24.9206 10.8842C25.0269 10.5214 25.0265 10.1314 24.9192 9.76884C24.8119 9.40632 24.6032 9.08948 24.3223 8.86274C24.0414 8.63601 23.7025 8.51075 23.353 8.50453L16.5652 8.22509C16.5318 8.22258 16.4998 8.20961 16.473 8.18773C16.4463 8.16586 16.4259 8.13602 16.4143 8.10181L14.0687 1.19802C13.9509 0.846776 13.7368 0.543484 13.4556 0.329202C13.1743 0.114921 12.8394 0 12.4962 0C12.153 0 11.8181 0.114921 11.5369 0.329202C11.2556 0.543484 11.0416 0.846776 10.9237 1.19802L8.58568 8.12646C8.57412 8.16068 8.55373 8.19052 8.52697 8.21239C8.50021 8.23426 8.46821 8.24724 8.43484 8.24975L1.64699 8.52919C1.2975 8.53541 0.958554 8.66067 0.677684 8.8874C0.396814 9.11413 0.188104 9.43097 0.0808184 9.79349C-0.0264673 10.156 -0.0269487 10.546 0.0794418 10.9089C0.185832 11.2717 0.393759 11.5891 0.674069 11.8167L5.99875 16.3781C6.0254 16.401 6.04532 16.4319 6.05604 16.4669C6.06677 16.502 6.06783 16.5397 6.05909 16.5754L4.22637 23.6518C4.1314 24.0121 4.1406 24.3956 4.25272 24.7501C4.36484 25.1045 4.57444 25.4127 4.853 25.6327C5.13156 25.8528 5.46556 25.974 5.80957 25.9798C6.15357 25.9856 6.49087 25.8759 6.77558 25.6654L12.402 21.556C12.4297 21.5351 12.4626 21.524 12.4962 21.524C12.5299 21.524 12.5628 21.5351 12.5905 21.556L18.2169 25.6654C18.4977 25.883 18.8338 26 19.1785 26C19.5231 26 19.8592 25.883 20.1401 25.6654C20.4187 25.4474 20.6285 25.1407 20.7406 24.7875C20.8527 24.4343 20.8616 24.0518 20.7661 23.6929L18.9183 16.5918C18.9085 16.5562 18.909 16.5181 18.9198 16.4828C18.9306 16.4475 18.9512 16.4167 18.9786 16.3946L24.3259 11.7921Z" fill="#623CEA"/>
</svg>
