<svg width="28" height="29" viewBox="0 0 28 29" fill="none" xmlns="http://www.w3.org/2000/svg">
<path d="M21.1477 27.3889C20.804 27.3886 20.4682 27.282 20.1833 27.0828L14.3811 23.055C14.3525 23.0346 14.3186 23.0236 14.2838 23.0236C14.2491 23.0236 14.2152 23.0346 14.1866 23.055L8.3844 27.0828C8.09304 27.2843 7.74939 27.3892 7.39909 27.3836C7.04879 27.3781 6.70841 27.2623 6.42316 27.0516C6.1379 26.841 5.92126 26.5454 5.80202 26.2042C5.68277 25.863 5.66655 25.4924 5.75551 25.1414L7.66107 18.1814C7.67008 18.1464 7.66898 18.1094 7.65793 18.0751C7.64687 18.0407 7.62633 18.0105 7.59885 17.9881L2.10773 13.5172C1.81866 13.2942 1.60424 12.983 1.49452 12.6274C1.38481 12.2718 1.3853 11.8895 1.49594 11.5342C1.60658 11.1789 1.82181 10.8683 2.11146 10.6461C2.40111 10.4239 2.75065 10.3011 3.11107 10.295L10.1111 10.0211C10.1455 10.0187 10.1785 10.0059 10.2061 9.9845C10.2337 9.96306 10.2547 9.93381 10.2666 9.90028L12.6777 3.10945C12.7993 2.76518 13.02 2.46792 13.3101 2.25789C13.6001 2.04786 13.9455 1.93523 14.2994 1.93523C14.6533 1.93523 14.9987 2.04786 15.2887 2.25789C15.5788 2.46792 15.7995 2.76518 15.9211 3.10945L18.3322 9.90028C18.3441 9.93381 18.3651 9.96306 18.3927 9.9845C18.4203 10.0059 18.4533 10.0187 18.4877 10.0211L25.4877 10.295C25.8482 10.3011 26.1977 10.4239 26.4873 10.6461C26.777 10.8683 26.9922 11.1789 27.1029 11.5342C27.2135 11.8895 27.214 12.2718 27.1043 12.6274C26.9946 12.983 26.7801 13.2942 26.4911 13.5172L21 17.9881C20.9716 18.0097 20.9505 18.0399 20.9393 18.0745C20.9282 18.1091 20.9276 18.1465 20.9377 18.1814L22.8433 25.1414C22.9102 25.4084 22.9168 25.6877 22.8627 25.9577C22.8086 26.2278 22.6951 26.4813 22.5312 26.6986C22.3672 26.916 22.1571 27.0913 21.9172 27.211C21.6773 27.3307 21.414 27.3915 21.1477 27.3889ZM14.2877 21.4117C14.6322 21.4226 14.9655 21.5405 15.2444 21.75L21.0466 25.7778C21.076 25.8009 21.1119 25.8136 21.1488 25.8139C21.1857 25.8142 21.2218 25.8021 21.2515 25.7795C21.2813 25.7568 21.3032 25.7248 21.3139 25.6882C21.3246 25.6516 21.3236 25.6124 21.3111 25.5764L19.4055 18.6164C19.3117 18.275 19.3187 17.9123 19.4254 17.575C19.5321 17.2377 19.7337 16.9411 20.0044 16.7233L25.4955 12.2525C25.5255 12.2307 25.5479 12.1995 25.5595 12.1636C25.5711 12.1276 25.5712 12.0888 25.5599 12.0527C25.5486 12.0166 25.5264 11.9853 25.4966 11.9633C25.4668 11.9412 25.431 11.9297 25.3944 11.9303L18.3944 11.6564C18.0516 11.6426 17.7206 11.5233 17.4436 11.3138C17.1665 11.1044 16.956 10.8142 16.8388 10.4803L14.4277 3.68945C14.4169 3.65339 14.3952 3.62187 14.3658 3.59949C14.3364 3.57712 14.3009 3.56505 14.2644 3.56505C14.2279 3.56505 14.1924 3.57712 14.163 3.59949C14.1336 3.62187 14.1119 3.65339 14.1011 3.68945L11.7133 10.4722C11.5961 10.8061 11.3856 11.0963 11.1085 11.3058C10.8315 11.5152 10.5005 11.6345 10.1577 11.6483L3.15773 11.9222C3.12113 11.9216 3.08531 11.9332 3.05552 11.9552C3.02573 11.9772 3.00356 12.0086 2.99224 12.0446C2.98093 12.0807 2.98107 12.1196 2.99266 12.1555C3.00425 12.1915 3.02667 12.2227 3.05662 12.2444L8.55551 16.7233C8.82536 16.9418 9.02638 17.2384 9.13302 17.5755C9.23966 17.9126 9.2471 18.2749 9.1544 18.6164L7.25662 25.5764C7.2453 25.6112 7.24524 25.649 7.25647 25.6839C7.2677 25.7187 7.2896 25.7489 7.31885 25.7697C7.34702 25.7947 7.38288 25.8084 7.41996 25.8084C7.45703 25.8084 7.49289 25.7947 7.52107 25.7697L13.3233 21.7419C13.6069 21.5471 13.9397 21.4434 14.28 21.4439L14.2877 21.4117Z" fill="#623CEA"/>
</svg>
