<svg width="35" height="35" viewBox="0 0 35 35" fill="none" xmlns="http://www.w3.org/2000/svg">
<path d="M21.8752 20.4166C17.9814 20.4166 10.2085 22.3562 10.2085 26.2499V29.1666H33.5418V26.2499C33.5418 22.3562 25.7689 20.4166 21.8752 20.4166ZM8.75016 14.5833V10.2083H5.8335V14.5833H1.4585V17.4999H5.8335V21.8749H8.75016V17.4999H13.1252V14.5833H8.75016ZM21.8752 17.4999C23.4223 17.4999 24.906 16.8853 26 15.7914C27.0939 14.6974 27.7085 13.2137 27.7085 11.6666C27.7085 10.1195 27.0939 8.63576 26 7.5418C24.906 6.44783 23.4223 5.83325 21.8752 5.83325C20.3281 5.83325 18.8443 6.44783 17.7504 7.5418C16.6564 8.63576 16.0418 10.1195 16.0418 11.6666C16.0418 13.2137 16.6564 14.6974 17.7504 15.7914C18.8443 16.8853 20.3281 17.4999 21.8752 17.4999Z" fill="#623CEA"/>
</svg>
