<svg width="35" height="35" viewBox="0 0 35 35" fill="none" xmlns="http://www.w3.org/2000/svg">
<path d="M1.4585 16.0417H7.29183V32.0834H1.4585V16.0417ZM23.3335 4.73966C24.2814 3.63133 25.7543 2.91675 27.271 2.91675C29.9689 2.91675 32.0835 5.03133 32.0835 7.72925C32.0835 11.0397 27.8398 14.8751 23.3335 18.9584C18.8272 14.8605 14.5835 11.0251 14.5835 7.72925C14.5835 5.03133 16.6981 2.91675 19.396 2.91675C20.9127 2.91675 22.3856 3.63133 23.3335 4.73966ZM29.1668 24.7917H18.9585L15.9106 23.7272L16.3918 22.3563L18.9585 23.3334H23.071C24.0189 23.3334 24.7918 22.5605 24.7918 21.6126C24.7918 20.898 24.3398 20.2563 23.6689 19.9938L13.0814 16.0417H10.2085V29.1959L20.4168 32.0834L32.0981 27.7084C32.0835 26.1042 30.7856 24.7917 29.1668 24.7917Z" fill="#623CEA"/>
</svg>
